<svg version="1.1" id="Layer_1" xmlns="http://www.w3.org/2000/svg" xmlns:xlink="http://www.w3.org/1999/xlink" x="0px" y="0px"
	 width="100%" viewBox="0 0 338 364" enable-background="new 0 0 338 364" xml:space="preserve">
<path fill="#000000" opacity="1.000000" stroke="none" 
	d="
M147.000000,365.000000 
	C98.000008,365.000000 49.500019,365.000000 1.000020,365.000000 
	C1.000013,243.666702 1.000013,122.333397 1.000006,1.000068 
	C113.666618,1.000046 226.333237,1.000046 338.999878,1.000023 
	C338.999939,122.333260 338.999939,243.666519 338.999969,364.999878 
	C275.166656,365.000000 211.333328,365.000000 147.000000,365.000000 
M101.683510,154.804413 
	C101.737518,155.860580 101.791534,156.916763 101.685455,158.871948 
	C101.732727,161.904572 101.779999,164.937195 101.655685,168.797485 
	C101.735687,170.194473 101.815689,171.591476 101.683281,173.802948 
	C101.758186,175.192673 101.833092,176.582413 101.724098,178.501724 
	C101.772942,178.682114 101.821785,178.862488 101.619057,179.668533 
	C101.697090,180.103470 101.775124,180.538391 101.656265,181.847931 
	C101.725677,184.225891 101.795090,186.603867 101.651703,189.879181 
	C101.725494,193.243362 101.799278,196.607559 101.684929,200.725113 
	C101.736504,201.495255 101.788086,202.265381 101.563499,203.866547 
	C101.640518,205.894821 101.717537,207.923096 101.604874,210.706268 
	C101.698601,211.467773 101.792328,212.229279 101.636177,213.900543 
	C101.636177,232.750412 101.636177,251.600281 101.636177,270.480408 
	C113.327194,270.480408 124.229019,270.480408 135.274353,270.480408 
	C135.274353,252.147614 135.274353,234.095245 135.587311,215.229797 
	C135.513412,213.498566 135.439514,211.767319 135.677032,209.162933 
	C136.107788,206.226303 136.538544,203.289688 137.345520,200.974167 
	C156.937988,220.598373 176.519424,240.233658 196.167252,259.802246 
	C196.879761,260.511902 198.244949,260.566254 199.340210,260.971039 
	C199.340210,260.971039 199.295715,261.002594 198.647446,261.778442 
	C200.671829,263.873260 202.696228,265.968048 204.886185,268.608856 
	C206.018097,268.763916 207.150024,268.918976 208.909302,268.775482 
	C209.971054,267.594574 211.032806,266.413635 212.711151,265.014313 
	C213.562576,264.045319 214.414001,263.076355 215.857407,261.827789 
	C220.991867,256.973114 226.126312,252.118423 230.968323,247.540253 
	C215.087051,231.436066 200.068542,216.206726 184.805466,200.350449 
	C184.852463,199.226212 184.899445,198.101959 185.474411,196.681854 
	C186.393295,195.662704 187.312180,194.643539 188.868500,193.326828 
	C193.799973,188.266312 198.731445,183.205795 204.253632,177.946671 
	C208.569397,173.319992 212.885162,168.693298 217.853180,163.940048 
	C219.969742,161.662491 222.086288,159.384918 224.838943,156.866302 
	C227.326584,154.355316 231.740479,152.901855 229.545044,147.880081 
	C226.656677,141.273315 223.862122,134.625549 221.021484,127.244469 
	C219.279861,124.024323 217.538239,120.804176 214.916901,117.337219 
	C189.927490,117.330070 164.937408,117.241325 139.949677,117.443016 
	C137.472305,117.463020 134.409393,118.631294 132.638657,120.330177 
	C122.548195,130.011108 112.767433,140.014847 102.300217,150.014130 
	C102.176025,151.013794 102.051842,152.013474 101.801140,153.521301 
	C101.833893,153.692780 101.866638,153.864243 101.683510,154.804413 
z"/>
<path fill="#FCFCFC" opacity="1.000000" stroke="none" 
	d="
M188.231064,193.624390 
	C187.312180,194.643539 186.393295,195.662704 184.848724,196.828827 
	C183.273926,197.628708 182.324829,198.281631 181.375732,198.934540 
	C182.600494,199.615494 183.825241,200.296448 185.050018,200.977417 
	C200.068542,216.206726 215.087051,231.436066 230.968323,247.540253 
	C226.126312,252.118423 220.991867,256.973114 215.158707,261.945557 
	C213.671509,263.119812 212.883026,264.176270 212.094543,265.232727 
	C211.032806,266.413635 209.971054,267.594574 208.476990,268.506348 
	C207.021957,266.552765 205.981613,265.204865 204.720612,268.062866 
	C202.696228,265.968048 200.671829,263.873260 199.118805,261.617188 
	C199.716644,261.482422 199.843140,261.508881 199.969620,261.535339 
	C199.748398,261.332214 199.527176,261.129120 199.305954,260.925995 
	C198.244949,260.566254 196.879761,260.511902 196.167252,259.802246 
	C176.519424,240.233658 156.937988,220.598373 137.044907,200.417053 
	C136.488510,199.206696 136.232727,198.553467 136.274796,197.758560 
	C145.926193,188.360321 155.279724,179.103745 165.026230,169.885300 
	C168.099350,169.498032 170.779495,169.072617 173.226822,168.684174 
	C179.096893,174.993866 184.948853,181.284103 189.850220,186.552536 
	C189.131943,189.689682 188.681503,191.657043 188.231064,193.624390 
M202.412292,259.483124 
	C202.412292,259.483124 202.521713,259.418365 202.412292,259.483124 
z"/>
<path fill="#FDFDFD" opacity="1.000000" stroke="none" 
	d="
M102.881393,149.908844 
	C112.767433,140.014847 122.548195,130.011108 132.638657,120.330177 
	C134.409393,118.631294 137.472305,117.463020 139.949677,117.443016 
	C164.937408,117.241325 189.927490,117.330070 215.268677,117.730331 
	C214.767105,119.126991 213.913773,120.130524 212.748627,121.249603 
	C208.907730,125.230408 205.378647,129.095673 201.528778,133.020767 
	C199.452682,135.044998 197.697327,137.009384 195.656952,139.112274 
	C194.255585,140.184692 193.139236,141.118576 191.716248,142.186676 
	C187.937851,145.201675 184.466110,148.082489 180.530472,151.032532 
	C165.424545,151.126022 150.782532,151.150253 135.667389,151.106918 
	C125.897438,151.068359 116.600136,151.151093 107.304230,151.071289 
	C105.826736,151.058609 104.355515,150.314697 102.881393,149.908844 
z"/>
<path fill="#FEFEFE" opacity="1.000000" stroke="none" 
	d="
M135.274353,216.042877 
	C135.274353,234.095245 135.274353,252.147614 135.274353,270.480408 
	C124.229019,270.480408 113.327194,270.480408 101.636177,270.480408 
	C101.636177,251.600281 101.636177,232.750412 102.149887,213.510239 
	C104.627213,213.745453 106.565407,214.805069 108.558807,214.921753 
	C117.455383,215.442535 126.367714,215.694077 135.274353,216.042877 
z"/>
<path fill="#DFDFDF" opacity="1.000000" stroke="none" 
	d="
M180.994370,150.963318 
	C184.466110,148.082489 187.937851,145.201675 191.721527,142.566010 
	C192.569443,143.517548 192.965958,144.444305 193.667862,144.888428 
	C195.662949,146.150787 198.330978,146.754593 199.752899,148.443665 
	C204.462311,154.037827 212.825912,157.118988 212.013550,166.377426 
	C214.024521,165.481598 215.612717,164.774109 217.200928,164.066620 
	C212.885162,168.693298 208.569397,173.319992 203.564240,177.991745 
	C201.786850,176.898071 200.708633,175.749771 199.609070,174.622299 
	C195.647690,170.560303 191.634171,166.547760 187.738556,162.423752 
	C186.441254,161.050415 185.439255,159.398102 184.302261,157.873322 
	C184.471970,157.751129 184.641678,157.628922 184.811386,157.506714 
	C183.170242,156.534439 181.529083,155.562164 180.002975,154.306046 
	C180.410141,153.002579 180.702255,151.982941 180.994370,150.963318 
z"/>
<path fill="#D5D5D5" opacity="1.000000" stroke="none" 
	d="
M135.976944,197.900238 
	C136.232727,198.553467 136.488510,199.206696 136.856796,200.106491 
	C136.538544,203.289688 136.107788,206.226303 135.344284,209.602966 
	C135.011536,210.042984 134.688675,209.897461 134.657623,209.683578 
	C134.499924,209.177338 134.279007,209.007294 133.536514,208.955994 
	C122.670975,209.285431 112.232765,209.618393 101.794548,209.951370 
	C101.717537,207.923096 101.640518,205.894821 102.013077,203.459564 
	C102.670296,203.047287 102.877937,203.042007 103.504143,203.025955 
	C108.999832,203.003708 114.084908,203.162048 119.151474,202.924805 
	C122.925354,202.748093 126.675278,202.059448 130.435867,201.598801 
	C130.404678,201.063690 130.373505,200.528580 130.342316,199.993469 
	C124.967690,199.993469 119.593063,199.996506 114.218430,199.992432 
	C110.490585,199.989609 106.762749,199.976990 102.744446,199.969406 
	C102.260345,199.970627 102.066711,199.971176 101.873062,199.971741 
	C101.799278,196.607559 101.725494,193.243362 102.148277,189.432129 
	C103.425034,188.998810 104.205215,189.012527 105.004990,189.439331 
	C105.592995,190.540512 106.140884,191.804550 106.733070,191.825668 
	C111.529572,191.996613 116.336617,192.006424 121.133987,191.857361 
	C121.776382,191.837387 122.382660,190.654953 123.291962,189.718338 
	C127.545616,189.292374 131.512970,189.158875 135.510590,189.427017 
	C135.686203,192.519180 135.831573,195.209717 135.976944,197.900238 
z"/>
<path fill="#F3F3F3" opacity="1.000000" stroke="none" 
	d="
M179.887924,154.589890 
	C181.529083,155.562164 183.170242,156.534439 184.811386,157.506714 
	C184.641678,157.628922 184.471970,157.751129 184.302261,157.873322 
	C185.439255,159.398102 186.441254,161.050415 187.738556,162.423752 
	C191.634171,166.547760 195.647690,170.560303 199.609070,174.622299 
	C200.708633,175.749771 201.786850,176.898071 203.268890,178.091034 
	C198.731445,183.205795 193.799973,188.266312 188.549774,193.475616 
	C188.681503,191.657043 189.131943,189.689682 189.850220,186.552536 
	C184.948853,181.284103 179.096893,174.993866 173.226822,168.684174 
	C170.779495,169.072617 168.099350,169.498032 165.165222,169.570206 
	C169.903458,164.341293 174.895691,159.465591 179.887924,154.589890 
z"/>
<path fill="#C4C5C7" opacity="1.000000" stroke="none" 
	d="
M201.849548,132.960922 
	C205.378647,129.095673 208.907730,125.230408 212.773697,121.584000 
	C215.409073,123.869949 217.707581,125.937057 219.797531,128.123627 
	C219.602722,128.593307 219.616470,128.943527 219.630188,129.293747 
	C219.751343,128.860306 219.872482,128.426880 220.252029,127.994873 
	C220.682693,127.995995 220.854965,127.995705 221.027237,127.995407 
	C223.862122,134.625549 226.656677,141.273315 229.545044,147.880081 
	C231.740479,152.901855 227.326584,154.355316 224.421356,156.971802 
	C224.003769,157.077316 223.843002,156.956161 223.890030,156.583740 
	C222.195694,153.840118 220.624588,151.316803 218.673676,149.132782 
	C215.628250,145.723480 212.675003,142.057388 209.015610,139.428802 
	C206.321915,137.493881 206.532028,132.459061 201.849548,132.960922 
M221.526993,135.626328 
	C221.473068,135.838531 221.419159,136.050735 221.365234,136.262924 
	C221.497406,136.126907 221.629578,135.990891 221.526993,135.626328 
M223.416504,142.479950 
	C223.416504,142.479950 223.523300,142.415665 223.416504,142.479950 
z"/>
<path fill="#B0B0B2" opacity="1.000000" stroke="none" 
	d="
M101.907997,177.972137 
	C101.833092,176.582413 101.758186,175.192673 102.178955,173.392365 
	C106.707840,169.819946 111.446831,169.500839 116.198463,170.066330 
	C122.650993,170.834213 129.054672,172.012634 135.528427,173.462799 
	C135.545700,176.615585 135.513855,179.320587 135.105347,182.032990 
	C129.040787,181.362091 123.365921,180.315247 117.661163,180.113571 
	C112.408524,179.927841 107.123764,180.650711 101.853149,180.973328 
	C101.775124,180.538391 101.697090,180.103470 101.926208,179.258957 
	C102.314163,178.740829 102.483116,178.561630 102.461754,178.534958 
	C102.298019,178.330643 102.097252,178.156006 101.907997,177.972137 
z"/>
<path fill="#949495" opacity="1.000000" stroke="none" 
	d="
M101.827278,167.969818 
	C101.779999,164.937195 101.732727,161.904572 102.206375,158.426712 
	C113.646072,158.326920 124.564857,158.672379 135.533112,159.462875 
	C135.461182,161.969650 135.339783,164.031387 135.060547,166.133698 
	C135.020813,166.420685 135.138931,166.667099 135.425446,167.276031 
	C135.556641,168.430740 135.519455,169.222946 135.108154,170.007187 
	C132.091583,169.328400 129.464432,168.160904 126.803802,168.078827 
	C118.485092,167.822220 110.153732,167.975433 101.827278,167.969818 
z"/>
<path fill="#C4C5C7" opacity="1.000000" stroke="none" 
	d="
M101.754707,181.410629 
	C107.123764,180.650711 112.408524,179.927841 117.661163,180.113571 
	C123.365921,180.315247 129.040787,181.362091 135.144760,182.468826 
	C135.534012,184.939957 135.507172,186.982666 135.480331,189.025375 
	C131.512970,189.158875 127.545616,189.292374 122.846573,189.713654 
	C119.738731,190.000961 117.362579,190.000488 114.905151,189.617691 
	C111.886871,189.160141 108.949867,189.084900 105.755936,189.009705 
	C105.327805,189.015244 105.156601,189.020737 104.985397,189.026245 
	C104.205215,189.012527 103.425034,188.998810 102.254684,188.983459 
	C101.795090,186.603867 101.725677,184.225891 101.754707,181.410629 
z"/>
<path fill="#D5D5D5" opacity="1.000000" stroke="none" 
	d="
M217.527054,164.003326 
	C215.612717,164.774109 214.024521,165.481598 212.013550,166.377426 
	C212.825912,157.118988 204.462311,154.037827 199.752899,148.443665 
	C198.330978,146.754593 195.662949,146.150787 193.667862,144.888428 
	C192.965958,144.444305 192.569443,143.517548 192.028198,142.431824 
	C193.139236,141.118576 194.255585,140.184692 195.975952,139.247192 
	C201.110550,138.685028 204.242157,141.310623 206.738174,144.386826 
	C211.385208,150.114029 215.142746,156.825485 223.843002,156.956161 
	C223.843002,156.956161 224.003769,157.077316 224.103302,157.092331 
	C222.086288,159.384918 219.969742,161.662491 217.527054,164.003326 
z"/>
<path fill="#868687" opacity="1.000000" stroke="none" 
	d="
M135.483643,159.017822 
	C124.564857,158.672379 113.646072,158.326920 102.286415,157.977203 
	C101.791534,156.916763 101.737518,155.860580 101.970146,154.329559 
	C102.333672,153.747818 102.495003,153.570267 102.474052,153.545227 
	C102.311760,153.351257 102.114250,153.186768 101.927658,153.013138 
	C102.051842,152.013474 102.176025,151.013794 102.590805,149.961487 
	C104.355515,150.314697 105.826736,151.058609 107.304230,151.071289 
	C116.600136,151.151093 125.897438,151.068359 135.549133,151.529968 
	C135.763870,154.352997 135.623749,156.685410 135.483643,159.017822 
M134.504868,153.406601 
	C134.504868,153.406601 134.570694,153.525192 134.504868,153.406601 
z"/>
<path fill="#F3F3F3" opacity="1.000000" stroke="none" 
	d="
M101.699707,210.328827 
	C112.232765,209.618393 122.670975,209.285431 133.614151,209.145233 
	C134.245392,209.589279 134.435257,209.775757 134.688675,209.897461 
	C134.688675,209.897461 135.011536,210.042984 135.188568,210.039536 
	C135.439514,211.767319 135.513412,213.498566 135.430832,215.636337 
	C126.367714,215.694077 117.455383,215.442535 108.558807,214.921753 
	C106.565407,214.805069 104.627213,213.745453 102.274834,213.055359 
	C101.792328,212.229279 101.698601,211.467773 101.699707,210.328827 
z"/>
<path fill="#A4A5A6" opacity="1.000000" stroke="none" 
	d="
M101.741486,168.383636 
	C110.153732,167.975433 118.485092,167.822220 126.803802,168.078827 
	C129.464432,168.160904 132.091583,169.328400 135.168365,170.380066 
	C135.561554,171.512268 135.520432,172.263611 135.479294,173.014984 
	C129.054672,172.012634 122.650993,170.834213 116.198463,170.066330 
	C111.446831,169.500839 106.707840,169.819946 102.285156,172.985107 
	C101.815689,171.591476 101.735687,170.194473 101.741486,168.383636 
z"/>
<path fill="#B0B0B2" opacity="1.000000" stroke="none" 
	d="
M220.006073,128.004166 
	C217.707581,125.937057 215.409073,123.869949 213.085510,121.468460 
	C213.913773,120.130524 214.767105,119.126991 215.708527,117.853745 
	C217.538239,120.804176 219.279861,124.024323 221.024353,127.619934 
	C220.854965,127.995705 220.682693,127.995995 220.255142,127.998077 
	C219.999847,127.999855 220.006073,128.004166 220.006073,128.004166 
z"/>
<path fill="#DFDFDF" opacity="1.000000" stroke="none" 
	d="
M184.927734,200.663940 
	C183.825241,200.296448 182.600494,199.615494 181.375732,198.934540 
	C182.324829,198.281631 183.273926,197.628708 184.584732,196.976761 
	C184.899445,198.101959 184.852463,199.226212 184.927734,200.663940 
z"/>
<path fill="#F3F3F3" opacity="1.000000" stroke="none" 
	d="
M204.803406,268.335876 
	C205.981613,265.204865 207.021957,266.552765 208.163300,268.655640 
	C207.150024,268.918976 206.018097,268.763916 204.803406,268.335876 
z"/>
<path fill="#F3F3F3" opacity="1.000000" stroke="none" 
	d="
M212.402847,265.123535 
	C212.883026,264.176270 213.671509,263.119812 214.862701,262.085388 
	C214.414001,263.076355 213.562576,264.045319 212.402847,265.123535 
z"/>
<path fill="#F3F3F3" opacity="1.000000" stroke="none" 
	d="
M103.085587,203.036728 
	C102.877937,203.042007 102.670296,203.047287 102.151154,203.044037 
	C101.788086,202.265381 101.736504,201.495255 101.778999,200.348419 
	C102.066711,199.971176 102.260345,199.970627 102.731079,200.353287 
	C103.033974,201.503250 103.059776,202.269989 103.085587,203.036728 
z"/>
<path fill="#C4C5C7" opacity="1.000000" stroke="none" 
	d="
M101.816048,178.236938 
	C102.097252,178.156006 102.298019,178.330643 102.461754,178.534958 
	C102.483116,178.561630 102.314163,178.740829 102.051994,178.946106 
	C101.821785,178.862488 101.772942,178.682114 101.816048,178.236938 
z"/>
<path fill="#949495" opacity="1.000000" stroke="none" 
	d="
M101.864395,153.267212 
	C102.114250,153.186768 102.311760,153.351257 102.474052,153.545227 
	C102.495003,153.570267 102.333672,153.747818 102.078087,153.945206 
	C101.866638,153.864243 101.833893,153.692780 101.864395,153.267212 
z"/>
<path fill="#F3F3F3" opacity="1.000000" stroke="none" 
	d="
M199.323090,260.948517 
	C199.527176,261.129120 199.748398,261.332214 199.969620,261.535339 
	C199.843140,261.508881 199.716644,261.482422 199.442932,261.229279 
	C199.295715,261.002594 199.340210,260.971039 199.323090,260.948517 
z"/>
<path fill="#080808" opacity="1.000000" stroke="none" 
	d="
M135.528427,173.462784 
	C135.520432,172.263611 135.561554,171.512268 135.542480,170.388031 
	C135.519455,169.222946 135.556641,168.430740 135.492462,167.067322 
	C135.391068,166.496078 135.218384,166.093124 135.218384,166.093124 
	C135.339783,164.031387 135.461182,161.969650 135.533112,159.462860 
	C135.623749,156.685410 135.763870,154.352997 136.022247,151.597534 
	C150.782532,151.150253 165.424545,151.126022 180.530472,151.032547 
	C180.702255,151.982941 180.410141,153.002579 180.002975,154.306046 
	C174.895691,159.465591 169.903458,164.341293 164.772247,169.532074 
	C155.279724,179.103745 145.926193,188.360321 136.274796,197.758560 
	C135.831573,195.209717 135.686203,192.519180 135.510590,189.427017 
	C135.507172,186.982666 135.534012,184.939957 135.521423,182.461411 
	C135.513855,179.320587 135.545700,176.615585 135.528427,173.462784 
z"/>
<path fill="#F3F3F3" opacity="1.000000" stroke="none" 
	d="
M202.467010,259.450745 
	C202.521713,259.418365 202.412292,259.483124 202.467010,259.450745 
z"/>
<path fill="#CDCED0" opacity="1.000000" stroke="none" 
	d="
M223.890030,156.583740 
	C215.142746,156.825485 211.385208,150.114029 206.738174,144.386826 
	C204.242157,141.310623 201.110550,138.685028 196.260986,139.108688 
	C197.697327,137.009384 199.452682,135.044998 201.528778,133.020767 
	C206.532028,132.459061 206.321915,137.493881 209.015610,139.428802 
	C212.675003,142.057388 215.628250,145.723480 218.673676,149.132782 
	C220.624588,151.316803 222.195694,153.840118 223.890030,156.583740 
z"/>
<path fill="#DFDFDF" opacity="1.000000" stroke="none" 
	d="
M103.504135,203.025955 
	C103.059776,202.269989 103.033974,201.503250 103.021538,200.352631 
	C106.762749,199.976990 110.490585,199.989609 114.218430,199.992432 
	C119.593063,199.996506 124.967690,199.993469 130.342316,199.993469 
	C130.373505,200.528580 130.404678,201.063690 130.435867,201.598801 
	C126.675278,202.059448 122.925354,202.748093 119.151474,202.924805 
	C114.084908,203.162048 108.999832,203.003708 103.504135,203.025955 
z"/>
<path fill="#CDCED0" opacity="1.000000" stroke="none" 
	d="
M105.004990,189.439331 
	C105.156601,189.020737 105.327805,189.015244 106.036713,189.296417 
	C109.378433,189.722061 112.182434,189.861023 114.986435,190.000000 
	C117.362579,190.000488 119.738731,190.000961 122.560272,190.006134 
	C122.382660,190.654953 121.776382,191.837387 121.133987,191.857361 
	C116.336617,192.006424 111.529572,191.996613 106.733070,191.825668 
	C106.140884,191.804550 105.592995,190.540512 105.004990,189.439331 
z"/>
<path fill="#FEFEFE" opacity="1.000000" stroke="none" 
	d="
M134.657623,209.683578 
	C134.435257,209.775757 134.245392,209.589279 134.041473,209.148788 
	C134.279007,209.007294 134.499924,209.177338 134.657623,209.683578 
z"/>
<path fill="#B0B0B2" opacity="1.000000" stroke="none" 
	d="
M221.644363,135.740601 
	C221.629578,135.990891 221.497406,136.126907 221.365234,136.262939 
	C221.419159,136.050735 221.473068,135.838531 221.644363,135.740601 
z"/>
<path fill="#B0B0B2" opacity="1.000000" stroke="none" 
	d="
M219.996735,127.996651 
	C219.872482,128.426880 219.751343,128.860306 219.630188,129.293747 
	C219.616470,128.943527 219.602722,128.593307 219.797531,128.123627 
	C220.006073,128.004166 219.999847,127.999855 219.996735,127.996651 
z"/>
<path fill="#B0B0B2" opacity="1.000000" stroke="none" 
	d="
M223.469910,142.447815 
	C223.523300,142.415665 223.416504,142.479950 223.469910,142.447815 
z"/>
<path fill="#B0B0B2" opacity="1.000000" stroke="none" 
	d="
M135.060547,166.133698 
	C135.218384,166.093124 135.391068,166.496078 135.324051,166.704803 
	C135.138931,166.667099 135.020813,166.420685 135.060547,166.133698 
z"/>
<path fill="#D5D5D5" opacity="1.000000" stroke="none" 
	d="
M114.905151,189.617676 
	C112.182434,189.861023 109.378433,189.722061 106.293648,189.296371 
	C108.949867,189.084900 111.886871,189.160141 114.905151,189.617676 
z"/>
<path fill="#949495" opacity="1.000000" stroke="none" 
	d="
M134.537781,153.465897 
	C134.570694,153.525192 134.504868,153.406601 134.537781,153.465897 
z"/>
</svg>